<mxfile host="Electron" agent="Mozilla/5.0 (Windows NT 10.0; Win64; x64) AppleWebKit/537.36 (KHTML, like Gecko) draw.io/25.0.2 Chrome/128.0.6613.186 Electron/32.2.5 Safari/537.36" version="25.0.2">
  <diagram id="C5RBs43oDa-KdzZeNtuy" name="Page-1">
    <mxGraphModel dx="399" dy="684" grid="1" gridSize="10" guides="1" tooltips="1" connect="1" arrows="1" fold="1" page="1" pageScale="1" pageWidth="827" pageHeight="1169" math="0" shadow="0">
      <root>
        <mxCell id="WIyWlLk6GJQsqaUBKTNV-0" />
        <mxCell id="WIyWlLk6GJQsqaUBKTNV-1" parent="WIyWlLk6GJQsqaUBKTNV-0" />
        <mxCell id="Z8-pDT4YCZunrKiM45Pz-116" value="" style="shape=folder;fontStyle=1;spacingTop=10;tabWidth=40;tabHeight=14;tabPosition=left;html=1;whiteSpace=wrap;" parent="WIyWlLk6GJQsqaUBKTNV-1" vertex="1">
          <mxGeometry x="2760" y="2040" width="2310" height="1280" as="geometry" />
        </mxCell>
        <mxCell id="Z8-pDT4YCZunrKiM45Pz-0" value="InicioSesionGui" style="swimlane;fontStyle=1;align=center;verticalAlign=top;childLayout=stackLayout;horizontal=1;startSize=26;horizontalStack=0;resizeParent=1;resizeParentMax=0;resizeLast=0;collapsible=1;marginBottom=0;whiteSpace=wrap;html=1;" parent="WIyWlLk6GJQsqaUBKTNV-1" vertex="1">
          <mxGeometry x="3470" y="2220" width="250" height="242" as="geometry" />
        </mxCell>
        <mxCell id="Z8-pDT4YCZunrKiM45Pz-1" value="- txtUsuario : JTextField" style="text;strokeColor=none;fillColor=none;align=left;verticalAlign=top;spacingLeft=4;spacingRight=4;overflow=hidden;rotatable=0;points=[[0,0.5],[1,0.5]];portConstraint=eastwest;whiteSpace=wrap;html=1;" parent="Z8-pDT4YCZunrKiM45Pz-0" vertex="1">
          <mxGeometry y="26" width="250" height="26" as="geometry" />
        </mxCell>
        <mxCell id="Z8-pDT4YCZunrKiM45Pz-4" value="- txtContrasena : JPasswordField&amp;nbsp;&amp;nbsp;" style="text;strokeColor=none;fillColor=none;align=left;verticalAlign=top;spacingLeft=4;spacingRight=4;overflow=hidden;rotatable=0;points=[[0,0.5],[1,0.5]];portConstraint=eastwest;whiteSpace=wrap;html=1;" parent="Z8-pDT4YCZunrKiM45Pz-0" vertex="1">
          <mxGeometry y="52" width="250" height="26" as="geometry" />
        </mxCell>
        <mxCell id="Z8-pDT4YCZunrKiM45Pz-5" value="- btnIniciarSesion : JButton&amp;nbsp;&amp;nbsp;" style="text;strokeColor=none;fillColor=none;align=left;verticalAlign=top;spacingLeft=4;spacingRight=4;overflow=hidden;rotatable=0;points=[[0,0.5],[1,0.5]];portConstraint=eastwest;whiteSpace=wrap;html=1;" parent="Z8-pDT4YCZunrKiM45Pz-0" vertex="1">
          <mxGeometry y="78" width="250" height="26" as="geometry" />
        </mxCell>
        <mxCell id="Z8-pDT4YCZunrKiM45Pz-6" value="- btnRegistrarse : JButton&amp;nbsp;" style="text;strokeColor=none;fillColor=none;align=left;verticalAlign=top;spacingLeft=4;spacingRight=4;overflow=hidden;rotatable=0;points=[[0,0.5],[1,0.5]];portConstraint=eastwest;whiteSpace=wrap;html=1;" parent="Z8-pDT4YCZunrKiM45Pz-0" vertex="1">
          <mxGeometry y="104" width="250" height="26" as="geometry" />
        </mxCell>
        <mxCell id="Z8-pDT4YCZunrKiM45Pz-2" value="" style="line;strokeWidth=1;fillColor=none;align=left;verticalAlign=middle;spacingTop=-1;spacingLeft=3;spacingRight=3;rotatable=0;labelPosition=right;points=[];portConstraint=eastwest;strokeColor=inherit;" parent="Z8-pDT4YCZunrKiM45Pz-0" vertex="1">
          <mxGeometry y="130" width="250" height="8" as="geometry" />
        </mxCell>
        <mxCell id="Z8-pDT4YCZunrKiM45Pz-3" value="+ InicioSesionGui() : void&amp;nbsp;" style="text;strokeColor=none;fillColor=none;align=left;verticalAlign=top;spacingLeft=4;spacingRight=4;overflow=hidden;rotatable=0;points=[[0,0.5],[1,0.5]];portConstraint=eastwest;whiteSpace=wrap;html=1;" parent="Z8-pDT4YCZunrKiM45Pz-0" vertex="1">
          <mxGeometry y="138" width="250" height="26" as="geometry" />
        </mxCell>
        <mxCell id="Z8-pDT4YCZunrKiM45Pz-7" value="&amp;nbsp;- configurarAcciones() : void" style="text;strokeColor=none;fillColor=none;align=left;verticalAlign=top;spacingLeft=4;spacingRight=4;overflow=hidden;rotatable=0;points=[[0,0.5],[1,0.5]];portConstraint=eastwest;whiteSpace=wrap;html=1;" parent="Z8-pDT4YCZunrKiM45Pz-0" vertex="1">
          <mxGeometry y="164" width="250" height="26" as="geometry" />
        </mxCell>
        <mxCell id="Z8-pDT4YCZunrKiM45Pz-8" value="&amp;nbsp;- actionPerformed(e: ActionEvent) : void" style="text;strokeColor=none;fillColor=none;align=left;verticalAlign=top;spacingLeft=4;spacingRight=4;overflow=hidden;rotatable=0;points=[[0,0.5],[1,0.5]];portConstraint=eastwest;whiteSpace=wrap;html=1;" parent="Z8-pDT4YCZunrKiM45Pz-0" vertex="1">
          <mxGeometry y="190" width="250" height="26" as="geometry" />
        </mxCell>
        <mxCell id="Z8-pDT4YCZunrKiM45Pz-9" value="+ main(args: String[]) : void" style="text;strokeColor=none;fillColor=none;align=left;verticalAlign=top;spacingLeft=4;spacingRight=4;overflow=hidden;rotatable=0;points=[[0,0.5],[1,0.5]];portConstraint=eastwest;whiteSpace=wrap;html=1;" parent="Z8-pDT4YCZunrKiM45Pz-0" vertex="1">
          <mxGeometry y="216" width="250" height="26" as="geometry" />
        </mxCell>
        <mxCell id="Z8-pDT4YCZunrKiM45Pz-10" value="&amp;nbsp;RegistroGui&amp;nbsp;&amp;nbsp;" style="swimlane;fontStyle=1;align=center;verticalAlign=top;childLayout=stackLayout;horizontal=1;startSize=26;horizontalStack=0;resizeParent=1;resizeParentMax=0;resizeLast=0;collapsible=1;marginBottom=0;whiteSpace=wrap;html=1;" parent="WIyWlLk6GJQsqaUBKTNV-1" vertex="1">
          <mxGeometry x="4011" y="2220" width="320" height="294" as="geometry" />
        </mxCell>
        <mxCell id="Z8-pDT4YCZunrKiM45Pz-11" value="- txtNombreUsuario : JTextField" style="text;strokeColor=none;fillColor=none;align=left;verticalAlign=top;spacingLeft=4;spacingRight=4;overflow=hidden;rotatable=0;points=[[0,0.5],[1,0.5]];portConstraint=eastwest;whiteSpace=wrap;html=1;" parent="Z8-pDT4YCZunrKiM45Pz-10" vertex="1">
          <mxGeometry y="26" width="320" height="26" as="geometry" />
        </mxCell>
        <mxCell id="Z8-pDT4YCZunrKiM45Pz-14" value="- txtContrasena : JPasswordField" style="text;strokeColor=none;fillColor=none;align=left;verticalAlign=top;spacingLeft=4;spacingRight=4;overflow=hidden;rotatable=0;points=[[0,0.5],[1,0.5]];portConstraint=eastwest;whiteSpace=wrap;html=1;" parent="Z8-pDT4YCZunrKiM45Pz-10" vertex="1">
          <mxGeometry y="52" width="320" height="26" as="geometry" />
        </mxCell>
        <mxCell id="Z8-pDT4YCZunrKiM45Pz-15" value="- rbProfesor : JRadioButton" style="text;strokeColor=none;fillColor=none;align=left;verticalAlign=top;spacingLeft=4;spacingRight=4;overflow=hidden;rotatable=0;points=[[0,0.5],[1,0.5]];portConstraint=eastwest;whiteSpace=wrap;html=1;" parent="Z8-pDT4YCZunrKiM45Pz-10" vertex="1">
          <mxGeometry y="78" width="320" height="26" as="geometry" />
        </mxCell>
        <mxCell id="Z8-pDT4YCZunrKiM45Pz-16" value="- rbEstudiante : JRadioButton" style="text;strokeColor=none;fillColor=none;align=left;verticalAlign=top;spacingLeft=4;spacingRight=4;overflow=hidden;rotatable=0;points=[[0,0.5],[1,0.5]];portConstraint=eastwest;whiteSpace=wrap;html=1;" parent="Z8-pDT4YCZunrKiM45Pz-10" vertex="1">
          <mxGeometry y="104" width="320" height="26" as="geometry" />
        </mxCell>
        <mxCell id="Z8-pDT4YCZunrKiM45Pz-17" value="- btnRegistrar : JButton" style="text;strokeColor=none;fillColor=none;align=left;verticalAlign=top;spacingLeft=4;spacingRight=4;overflow=hidden;rotatable=0;points=[[0,0.5],[1,0.5]];portConstraint=eastwest;whiteSpace=wrap;html=1;" parent="Z8-pDT4YCZunrKiM45Pz-10" vertex="1">
          <mxGeometry y="130" width="320" height="26" as="geometry" />
        </mxCell>
        <mxCell id="Z8-pDT4YCZunrKiM45Pz-18" value="- btnVolver : JButton" style="text;strokeColor=none;fillColor=none;align=left;verticalAlign=top;spacingLeft=4;spacingRight=4;overflow=hidden;rotatable=0;points=[[0,0.5],[1,0.5]];portConstraint=eastwest;whiteSpace=wrap;html=1;" parent="Z8-pDT4YCZunrKiM45Pz-10" vertex="1">
          <mxGeometry y="156" width="320" height="26" as="geometry" />
        </mxCell>
        <mxCell id="Z8-pDT4YCZunrKiM45Pz-12" value="" style="line;strokeWidth=1;fillColor=none;align=left;verticalAlign=middle;spacingTop=-1;spacingLeft=3;spacingRight=3;rotatable=0;labelPosition=right;points=[];portConstraint=eastwest;strokeColor=inherit;" parent="Z8-pDT4YCZunrKiM45Pz-10" vertex="1">
          <mxGeometry y="182" width="320" height="8" as="geometry" />
        </mxCell>
        <mxCell id="Z8-pDT4YCZunrKiM45Pz-19" value="+ RegistroGui() : void" style="text;strokeColor=none;fillColor=none;align=left;verticalAlign=top;spacingLeft=4;spacingRight=4;overflow=hidden;rotatable=0;points=[[0,0.5],[1,0.5]];portConstraint=eastwest;whiteSpace=wrap;html=1;" parent="Z8-pDT4YCZunrKiM45Pz-10" vertex="1">
          <mxGeometry y="190" width="320" height="26" as="geometry" />
        </mxCell>
        <mxCell id="Z8-pDT4YCZunrKiM45Pz-20" value="- configurarAcciones() : void" style="text;strokeColor=none;fillColor=none;align=left;verticalAlign=top;spacingLeft=4;spacingRight=4;overflow=hidden;rotatable=0;points=[[0,0.5],[1,0.5]];portConstraint=eastwest;whiteSpace=wrap;html=1;" parent="Z8-pDT4YCZunrKiM45Pz-10" vertex="1">
          <mxGeometry y="216" width="320" height="26" as="geometry" />
        </mxCell>
        <mxCell id="Z8-pDT4YCZunrKiM45Pz-21" value="- actionPerformed(actionEvent: ActionEvent) : void&amp;nbsp;" style="text;strokeColor=none;fillColor=none;align=left;verticalAlign=top;spacingLeft=4;spacingRight=4;overflow=hidden;rotatable=0;points=[[0,0.5],[1,0.5]];portConstraint=eastwest;whiteSpace=wrap;html=1;" parent="Z8-pDT4YCZunrKiM45Pz-10" vertex="1">
          <mxGeometry y="242" width="320" height="26" as="geometry" />
        </mxCell>
        <mxCell id="Z8-pDT4YCZunrKiM45Pz-22" value="+ main(args: String[]) : void&amp;nbsp;" style="text;strokeColor=none;fillColor=none;align=left;verticalAlign=top;spacingLeft=4;spacingRight=4;overflow=hidden;rotatable=0;points=[[0,0.5],[1,0.5]];portConstraint=eastwest;whiteSpace=wrap;html=1;" parent="Z8-pDT4YCZunrKiM45Pz-10" vertex="1">
          <mxGeometry y="268" width="320" height="26" as="geometry" />
        </mxCell>
        <mxCell id="Z8-pDT4YCZunrKiM45Pz-23" value="&amp;nbsp;VerPerfilProfesorGui" style="swimlane;fontStyle=1;align=center;verticalAlign=top;childLayout=stackLayout;horizontal=1;startSize=26;horizontalStack=0;resizeParent=1;resizeParentMax=0;resizeLast=0;collapsible=1;marginBottom=0;whiteSpace=wrap;html=1;" parent="WIyWlLk6GJQsqaUBKTNV-1" vertex="1">
          <mxGeometry x="2890" y="2795" width="280" height="86" as="geometry" />
        </mxCell>
        <mxCell id="Z8-pDT4YCZunrKiM45Pz-24" value="+ profesor : Profesor&amp;nbsp;" style="text;strokeColor=none;fillColor=none;align=left;verticalAlign=top;spacingLeft=4;spacingRight=4;overflow=hidden;rotatable=0;points=[[0,0.5],[1,0.5]];portConstraint=eastwest;whiteSpace=wrap;html=1;" parent="Z8-pDT4YCZunrKiM45Pz-23" vertex="1">
          <mxGeometry y="26" width="280" height="26" as="geometry" />
        </mxCell>
        <mxCell id="Z8-pDT4YCZunrKiM45Pz-25" value="" style="line;strokeWidth=1;fillColor=none;align=left;verticalAlign=middle;spacingTop=-1;spacingLeft=3;spacingRight=3;rotatable=0;labelPosition=right;points=[];portConstraint=eastwest;strokeColor=inherit;" parent="Z8-pDT4YCZunrKiM45Pz-23" vertex="1">
          <mxGeometry y="52" width="280" height="8" as="geometry" />
        </mxCell>
        <mxCell id="Z8-pDT4YCZunrKiM45Pz-27" value="+ VerPerfilProfesorGui(profesor: Profesor) : void" style="text;strokeColor=none;fillColor=none;align=left;verticalAlign=top;spacingLeft=4;spacingRight=4;overflow=hidden;rotatable=0;points=[[0,0.5],[1,0.5]];portConstraint=eastwest;whiteSpace=wrap;html=1;" parent="Z8-pDT4YCZunrKiM45Pz-23" vertex="1">
          <mxGeometry y="60" width="280" height="26" as="geometry" />
        </mxCell>
        <mxCell id="Z8-pDT4YCZunrKiM45Pz-28" value="CrearLearningPathGui" style="swimlane;fontStyle=1;align=center;verticalAlign=top;childLayout=stackLayout;horizontal=1;startSize=26;horizontalStack=0;resizeParent=1;resizeParentMax=0;resizeLast=0;collapsible=1;marginBottom=0;whiteSpace=wrap;html=1;" parent="WIyWlLk6GJQsqaUBKTNV-1" vertex="1">
          <mxGeometry x="3210" y="2795" width="280" height="86" as="geometry" />
        </mxCell>
        <mxCell id="Z8-pDT4YCZunrKiM45Pz-29" value="+ profesor : Profesor&amp;nbsp;" style="text;strokeColor=none;fillColor=none;align=left;verticalAlign=top;spacingLeft=4;spacingRight=4;overflow=hidden;rotatable=0;points=[[0,0.5],[1,0.5]];portConstraint=eastwest;whiteSpace=wrap;html=1;" parent="Z8-pDT4YCZunrKiM45Pz-28" vertex="1">
          <mxGeometry y="26" width="280" height="26" as="geometry" />
        </mxCell>
        <mxCell id="Z8-pDT4YCZunrKiM45Pz-30" value="" style="line;strokeWidth=1;fillColor=none;align=left;verticalAlign=middle;spacingTop=-1;spacingLeft=3;spacingRight=3;rotatable=0;labelPosition=right;points=[];portConstraint=eastwest;strokeColor=inherit;" parent="Z8-pDT4YCZunrKiM45Pz-28" vertex="1">
          <mxGeometry y="52" width="280" height="8" as="geometry" />
        </mxCell>
        <mxCell id="Z8-pDT4YCZunrKiM45Pz-31" value="&amp;nbsp;+ CrearLearningPathGui(profesor: Profesor) : void" style="text;strokeColor=none;fillColor=none;align=left;verticalAlign=top;spacingLeft=4;spacingRight=4;overflow=hidden;rotatable=0;points=[[0,0.5],[1,0.5]];portConstraint=eastwest;whiteSpace=wrap;html=1;" parent="Z8-pDT4YCZunrKiM45Pz-28" vertex="1">
          <mxGeometry y="60" width="280" height="26" as="geometry" />
        </mxCell>
        <mxCell id="Z8-pDT4YCZunrKiM45Pz-33" value="&amp;nbsp;VerLearningPathsGui&amp;nbsp;" style="swimlane;fontStyle=1;align=center;verticalAlign=top;childLayout=stackLayout;horizontal=1;startSize=26;horizontalStack=0;resizeParent=1;resizeParentMax=0;resizeLast=0;collapsible=1;marginBottom=0;whiteSpace=wrap;html=1;" parent="WIyWlLk6GJQsqaUBKTNV-1" vertex="1">
          <mxGeometry x="3430" y="2912" width="450" height="112" as="geometry" />
        </mxCell>
        <mxCell id="Z8-pDT4YCZunrKiM45Pz-34" value="+ profesor : Profesor&amp;nbsp;" style="text;strokeColor=none;fillColor=none;align=left;verticalAlign=top;spacingLeft=4;spacingRight=4;overflow=hidden;rotatable=0;points=[[0,0.5],[1,0.5]];portConstraint=eastwest;whiteSpace=wrap;html=1;" parent="Z8-pDT4YCZunrKiM45Pz-33" vertex="1">
          <mxGeometry y="26" width="450" height="26" as="geometry" />
        </mxCell>
        <mxCell id="Z8-pDT4YCZunrKiM45Pz-35" value="" style="line;strokeWidth=1;fillColor=none;align=left;verticalAlign=middle;spacingTop=-1;spacingLeft=3;spacingRight=3;rotatable=0;labelPosition=right;points=[];portConstraint=eastwest;strokeColor=inherit;" parent="Z8-pDT4YCZunrKiM45Pz-33" vertex="1">
          <mxGeometry y="52" width="450" height="8" as="geometry" />
        </mxCell>
        <mxCell id="Z8-pDT4YCZunrKiM45Pz-36" value="+ VerLearningPathsGui(profesor: Profesor) : void" style="text;strokeColor=none;fillColor=none;align=left;verticalAlign=top;spacingLeft=4;spacingRight=4;overflow=hidden;rotatable=0;points=[[0,0.5],[1,0.5]];portConstraint=eastwest;whiteSpace=wrap;html=1;" parent="Z8-pDT4YCZunrKiM45Pz-33" vertex="1">
          <mxGeometry y="60" width="450" height="26" as="geometry" />
        </mxCell>
        <mxCell id="Z8-pDT4YCZunrKiM45Pz-37" value="+ mostrarDetallesLearningPath(lp: LearningPath, areaDetalles: JTextArea) : void" style="text;strokeColor=none;fillColor=none;align=left;verticalAlign=top;spacingLeft=4;spacingRight=4;overflow=hidden;rotatable=0;points=[[0,0.5],[1,0.5]];portConstraint=eastwest;whiteSpace=wrap;html=1;" parent="Z8-pDT4YCZunrKiM45Pz-33" vertex="1">
          <mxGeometry y="86" width="450" height="26" as="geometry" />
        </mxCell>
        <mxCell id="Z8-pDT4YCZunrKiM45Pz-38" value="&amp;nbsp;ModificarLearningPathGui" style="swimlane;fontStyle=1;align=center;verticalAlign=top;childLayout=stackLayout;horizontal=1;startSize=26;horizontalStack=0;resizeParent=1;resizeParentMax=0;resizeLast=0;collapsible=1;marginBottom=0;whiteSpace=wrap;html=1;" parent="WIyWlLk6GJQsqaUBKTNV-1" vertex="1">
          <mxGeometry x="3530" y="2795" width="300" height="86" as="geometry" />
        </mxCell>
        <mxCell id="Z8-pDT4YCZunrKiM45Pz-39" value="+ profesor : Profesor&amp;nbsp;" style="text;strokeColor=none;fillColor=none;align=left;verticalAlign=top;spacingLeft=4;spacingRight=4;overflow=hidden;rotatable=0;points=[[0,0.5],[1,0.5]];portConstraint=eastwest;whiteSpace=wrap;html=1;" parent="Z8-pDT4YCZunrKiM45Pz-38" vertex="1">
          <mxGeometry y="26" width="300" height="26" as="geometry" />
        </mxCell>
        <mxCell id="Z8-pDT4YCZunrKiM45Pz-40" value="" style="line;strokeWidth=1;fillColor=none;align=left;verticalAlign=middle;spacingTop=-1;spacingLeft=3;spacingRight=3;rotatable=0;labelPosition=right;points=[];portConstraint=eastwest;strokeColor=inherit;" parent="Z8-pDT4YCZunrKiM45Pz-38" vertex="1">
          <mxGeometry y="52" width="300" height="8" as="geometry" />
        </mxCell>
        <mxCell id="Z8-pDT4YCZunrKiM45Pz-41" value="+ ModificarLearningPathGui(profesor: Profesor) : void" style="text;strokeColor=none;fillColor=none;align=left;verticalAlign=top;spacingLeft=4;spacingRight=4;overflow=hidden;rotatable=0;points=[[0,0.5],[1,0.5]];portConstraint=eastwest;whiteSpace=wrap;html=1;" parent="Z8-pDT4YCZunrKiM45Pz-38" vertex="1">
          <mxGeometry y="60" width="300" height="26" as="geometry" />
        </mxCell>
        <mxCell id="Z8-pDT4YCZunrKiM45Pz-44" value="AgregarActividadGui" style="swimlane;fontStyle=1;align=center;verticalAlign=top;childLayout=stackLayout;horizontal=1;startSize=26;horizontalStack=0;resizeParent=1;resizeParentMax=0;resizeLast=0;collapsible=1;marginBottom=0;whiteSpace=wrap;html=1;" parent="WIyWlLk6GJQsqaUBKTNV-1" vertex="1">
          <mxGeometry x="3040" y="2912" width="300" height="86" as="geometry" />
        </mxCell>
        <mxCell id="Z8-pDT4YCZunrKiM45Pz-45" value="+ profesor : Profesor&amp;nbsp;" style="text;strokeColor=none;fillColor=none;align=left;verticalAlign=top;spacingLeft=4;spacingRight=4;overflow=hidden;rotatable=0;points=[[0,0.5],[1,0.5]];portConstraint=eastwest;whiteSpace=wrap;html=1;" parent="Z8-pDT4YCZunrKiM45Pz-44" vertex="1">
          <mxGeometry y="26" width="300" height="26" as="geometry" />
        </mxCell>
        <mxCell id="Z8-pDT4YCZunrKiM45Pz-46" value="" style="line;strokeWidth=1;fillColor=none;align=left;verticalAlign=middle;spacingTop=-1;spacingLeft=3;spacingRight=3;rotatable=0;labelPosition=right;points=[];portConstraint=eastwest;strokeColor=inherit;" parent="Z8-pDT4YCZunrKiM45Pz-44" vertex="1">
          <mxGeometry y="52" width="300" height="8" as="geometry" />
        </mxCell>
        <mxCell id="Z8-pDT4YCZunrKiM45Pz-47" value="+ AgregarActividadGui(profesor: Profesor) : void" style="text;strokeColor=none;fillColor=none;align=left;verticalAlign=top;spacingLeft=4;spacingRight=4;overflow=hidden;rotatable=0;points=[[0,0.5],[1,0.5]];portConstraint=eastwest;whiteSpace=wrap;html=1;" parent="Z8-pDT4YCZunrKiM45Pz-44" vertex="1">
          <mxGeometry y="60" width="300" height="26" as="geometry" />
        </mxCell>
        <mxCell id="Z8-pDT4YCZunrKiM45Pz-49" value="ClonarLearningPathGui" style="swimlane;fontStyle=1;align=center;verticalAlign=top;childLayout=stackLayout;horizontal=1;startSize=26;horizontalStack=0;resizeParent=1;resizeParentMax=0;resizeLast=0;collapsible=1;marginBottom=0;whiteSpace=wrap;html=1;" parent="WIyWlLk6GJQsqaUBKTNV-1" vertex="1">
          <mxGeometry x="3030" y="3075" width="300" height="86" as="geometry" />
        </mxCell>
        <mxCell id="Z8-pDT4YCZunrKiM45Pz-50" value="+ profesor : Profesor&amp;nbsp;" style="text;strokeColor=none;fillColor=none;align=left;verticalAlign=top;spacingLeft=4;spacingRight=4;overflow=hidden;rotatable=0;points=[[0,0.5],[1,0.5]];portConstraint=eastwest;whiteSpace=wrap;html=1;" parent="Z8-pDT4YCZunrKiM45Pz-49" vertex="1">
          <mxGeometry y="26" width="300" height="26" as="geometry" />
        </mxCell>
        <mxCell id="Z8-pDT4YCZunrKiM45Pz-51" value="" style="line;strokeWidth=1;fillColor=none;align=left;verticalAlign=middle;spacingTop=-1;spacingLeft=3;spacingRight=3;rotatable=0;labelPosition=right;points=[];portConstraint=eastwest;strokeColor=inherit;" parent="Z8-pDT4YCZunrKiM45Pz-49" vertex="1">
          <mxGeometry y="52" width="300" height="8" as="geometry" />
        </mxCell>
        <mxCell id="Z8-pDT4YCZunrKiM45Pz-52" value="+ ClonarLearningPathGui(profesor: Profesor) : void" style="text;strokeColor=none;fillColor=none;align=left;verticalAlign=top;spacingLeft=4;spacingRight=4;overflow=hidden;rotatable=0;points=[[0,0.5],[1,0.5]];portConstraint=eastwest;whiteSpace=wrap;html=1;" parent="Z8-pDT4YCZunrKiM45Pz-49" vertex="1">
          <mxGeometry y="60" width="300" height="26" as="geometry" />
        </mxCell>
        <mxCell id="Z8-pDT4YCZunrKiM45Pz-55" value="EstablecerActividadSeguimientoGui" style="swimlane;fontStyle=1;align=center;verticalAlign=top;childLayout=stackLayout;horizontal=1;startSize=26;horizontalStack=0;resizeParent=1;resizeParentMax=0;resizeLast=0;collapsible=1;marginBottom=0;whiteSpace=wrap;html=1;" parent="WIyWlLk6GJQsqaUBKTNV-1" vertex="1">
          <mxGeometry x="3370" y="3075" width="700" height="112" as="geometry" />
        </mxCell>
        <mxCell id="Z8-pDT4YCZunrKiM45Pz-56" value="+ profesor : Profesor" style="text;strokeColor=none;fillColor=none;align=left;verticalAlign=top;spacingLeft=4;spacingRight=4;overflow=hidden;rotatable=0;points=[[0,0.5],[1,0.5]];portConstraint=eastwest;whiteSpace=wrap;html=1;" parent="Z8-pDT4YCZunrKiM45Pz-55" vertex="1">
          <mxGeometry y="26" width="700" height="26" as="geometry" />
        </mxCell>
        <mxCell id="Z8-pDT4YCZunrKiM45Pz-57" value="" style="line;strokeWidth=1;fillColor=none;align=left;verticalAlign=middle;spacingTop=-1;spacingLeft=3;spacingRight=3;rotatable=0;labelPosition=right;points=[];portConstraint=eastwest;strokeColor=inherit;" parent="Z8-pDT4YCZunrKiM45Pz-55" vertex="1">
          <mxGeometry y="52" width="700" height="8" as="geometry" />
        </mxCell>
        <mxCell id="Z8-pDT4YCZunrKiM45Pz-58" value="+ EstablecerActividadSeguimientoGui(profesor: Profesor)" style="text;strokeColor=none;fillColor=none;align=left;verticalAlign=top;spacingLeft=4;spacingRight=4;overflow=hidden;rotatable=0;points=[[0,0.5],[1,0.5]];portConstraint=eastwest;whiteSpace=wrap;html=1;" parent="Z8-pDT4YCZunrKiM45Pz-55" vertex="1">
          <mxGeometry y="60" width="700" height="26" as="geometry" />
        </mxCell>
        <mxCell id="Z8-pDT4YCZunrKiM45Pz-61" value="+ cargarActividades(lp: LearningPath, modelBase: DefaultListModel&amp;lt;String&amp;gt;, modelSeguimiento: DefaultListModel&amp;lt;String&amp;gt;) : void" style="text;strokeColor=none;fillColor=none;align=left;verticalAlign=top;spacingLeft=4;spacingRight=4;overflow=hidden;rotatable=0;points=[[0,0.5],[1,0.5]];portConstraint=eastwest;whiteSpace=wrap;html=1;" parent="Z8-pDT4YCZunrKiM45Pz-55" vertex="1">
          <mxGeometry y="86" width="700" height="26" as="geometry" />
        </mxCell>
        <mxCell id="Z8-pDT4YCZunrKiM45Pz-62" value="VerPerfilEstudianteGui" style="swimlane;fontStyle=1;align=center;verticalAlign=top;childLayout=stackLayout;horizontal=1;startSize=26;horizontalStack=0;resizeParent=1;resizeParentMax=0;resizeLast=0;collapsible=1;marginBottom=0;whiteSpace=wrap;html=1;" parent="WIyWlLk6GJQsqaUBKTNV-1" vertex="1">
          <mxGeometry x="4011" y="2795" width="310" height="86" as="geometry" />
        </mxCell>
        <mxCell id="Z8-pDT4YCZunrKiM45Pz-63" value="+ estudiante : Estudiante" style="text;strokeColor=none;fillColor=none;align=left;verticalAlign=top;spacingLeft=4;spacingRight=4;overflow=hidden;rotatable=0;points=[[0,0.5],[1,0.5]];portConstraint=eastwest;whiteSpace=wrap;html=1;" parent="Z8-pDT4YCZunrKiM45Pz-62" vertex="1">
          <mxGeometry y="26" width="310" height="26" as="geometry" />
        </mxCell>
        <mxCell id="Z8-pDT4YCZunrKiM45Pz-64" value="" style="line;strokeWidth=1;fillColor=none;align=left;verticalAlign=middle;spacingTop=-1;spacingLeft=3;spacingRight=3;rotatable=0;labelPosition=right;points=[];portConstraint=eastwest;strokeColor=inherit;" parent="Z8-pDT4YCZunrKiM45Pz-62" vertex="1">
          <mxGeometry y="52" width="310" height="8" as="geometry" />
        </mxCell>
        <mxCell id="Z8-pDT4YCZunrKiM45Pz-66" value="+ VerPerfilEstudianteGui(estudiante: Estudiante)" style="text;strokeColor=none;fillColor=none;align=left;verticalAlign=top;spacingLeft=4;spacingRight=4;overflow=hidden;rotatable=0;points=[[0,0.5],[1,0.5]];portConstraint=eastwest;whiteSpace=wrap;html=1;" parent="Z8-pDT4YCZunrKiM45Pz-62" vertex="1">
          <mxGeometry y="60" width="310" height="26" as="geometry" />
        </mxCell>
        <mxCell id="Z8-pDT4YCZunrKiM45Pz-67" value="InscribirseLearningPathGui" style="swimlane;fontStyle=1;align=center;verticalAlign=top;childLayout=stackLayout;horizontal=1;startSize=26;horizontalStack=0;resizeParent=1;resizeParentMax=0;resizeLast=0;collapsible=1;marginBottom=0;whiteSpace=wrap;html=1;" parent="WIyWlLk6GJQsqaUBKTNV-1" vertex="1">
          <mxGeometry x="4370" y="2800" width="310" height="86" as="geometry" />
        </mxCell>
        <mxCell id="Z8-pDT4YCZunrKiM45Pz-68" value="+ estudiante : Estudiante" style="text;strokeColor=none;fillColor=none;align=left;verticalAlign=top;spacingLeft=4;spacingRight=4;overflow=hidden;rotatable=0;points=[[0,0.5],[1,0.5]];portConstraint=eastwest;whiteSpace=wrap;html=1;" parent="Z8-pDT4YCZunrKiM45Pz-67" vertex="1">
          <mxGeometry y="26" width="310" height="26" as="geometry" />
        </mxCell>
        <mxCell id="Z8-pDT4YCZunrKiM45Pz-69" value="" style="line;strokeWidth=1;fillColor=none;align=left;verticalAlign=middle;spacingTop=-1;spacingLeft=3;spacingRight=3;rotatable=0;labelPosition=right;points=[];portConstraint=eastwest;strokeColor=inherit;" parent="Z8-pDT4YCZunrKiM45Pz-67" vertex="1">
          <mxGeometry y="52" width="310" height="8" as="geometry" />
        </mxCell>
        <mxCell id="Z8-pDT4YCZunrKiM45Pz-70" value="+ InscribirseLearningPathGui(estudiante: Estudiante)" style="text;strokeColor=none;fillColor=none;align=left;verticalAlign=top;spacingLeft=4;spacingRight=4;overflow=hidden;rotatable=0;points=[[0,0.5],[1,0.5]];portConstraint=eastwest;whiteSpace=wrap;html=1;" parent="Z8-pDT4YCZunrKiM45Pz-67" vertex="1">
          <mxGeometry y="60" width="310" height="26" as="geometry" />
        </mxCell>
        <mxCell id="Z8-pDT4YCZunrKiM45Pz-72" value="VerProgresoGui" style="swimlane;fontStyle=1;align=center;verticalAlign=top;childLayout=stackLayout;horizontal=1;startSize=26;horizontalStack=0;resizeParent=1;resizeParentMax=0;resizeLast=0;collapsible=1;marginBottom=0;whiteSpace=wrap;html=1;" parent="WIyWlLk6GJQsqaUBKTNV-1" vertex="1">
          <mxGeometry x="4730" y="2800" width="290" height="86" as="geometry" />
        </mxCell>
        <mxCell id="Z8-pDT4YCZunrKiM45Pz-73" value="+ estudiante : Estudiante" style="text;strokeColor=none;fillColor=none;align=left;verticalAlign=top;spacingLeft=4;spacingRight=4;overflow=hidden;rotatable=0;points=[[0,0.5],[1,0.5]];portConstraint=eastwest;whiteSpace=wrap;html=1;" parent="Z8-pDT4YCZunrKiM45Pz-72" vertex="1">
          <mxGeometry y="26" width="290" height="26" as="geometry" />
        </mxCell>
        <mxCell id="Z8-pDT4YCZunrKiM45Pz-74" value="" style="line;strokeWidth=1;fillColor=none;align=left;verticalAlign=middle;spacingTop=-1;spacingLeft=3;spacingRight=3;rotatable=0;labelPosition=right;points=[];portConstraint=eastwest;strokeColor=inherit;" parent="Z8-pDT4YCZunrKiM45Pz-72" vertex="1">
          <mxGeometry y="52" width="290" height="8" as="geometry" />
        </mxCell>
        <mxCell id="Z8-pDT4YCZunrKiM45Pz-75" value="+ VerProgresoGui(estudiante: Estudiante)" style="text;strokeColor=none;fillColor=none;align=left;verticalAlign=top;spacingLeft=4;spacingRight=4;overflow=hidden;rotatable=0;points=[[0,0.5],[1,0.5]];portConstraint=eastwest;whiteSpace=wrap;html=1;" parent="Z8-pDT4YCZunrKiM45Pz-72" vertex="1">
          <mxGeometry y="60" width="290" height="26" as="geometry" />
        </mxCell>
        <mxCell id="Z8-pDT4YCZunrKiM45Pz-76" value="MarcarActividadGui" style="swimlane;fontStyle=1;align=center;verticalAlign=top;childLayout=stackLayout;horizontal=1;startSize=26;horizontalStack=0;resizeParent=1;resizeParentMax=0;resizeLast=0;collapsible=1;marginBottom=0;whiteSpace=wrap;html=1;" parent="WIyWlLk6GJQsqaUBKTNV-1" vertex="1">
          <mxGeometry x="4365" y="2960" width="320" height="190" as="geometry" />
        </mxCell>
        <mxCell id="Z8-pDT4YCZunrKiM45Pz-77" value="- comboLearningPaths : JComboBox&amp;lt;LearningPath&amp;gt;" style="text;strokeColor=none;fillColor=none;align=left;verticalAlign=top;spacingLeft=4;spacingRight=4;overflow=hidden;rotatable=0;points=[[0,0.5],[1,0.5]];portConstraint=eastwest;whiteSpace=wrap;html=1;" parent="Z8-pDT4YCZunrKiM45Pz-76" vertex="1">
          <mxGeometry y="26" width="320" height="26" as="geometry" />
        </mxCell>
        <mxCell id="Z8-pDT4YCZunrKiM45Pz-80" value="- comboActividades : JComboBox&amp;lt;Actividad&amp;gt;" style="text;strokeColor=none;fillColor=none;align=left;verticalAlign=top;spacingLeft=4;spacingRight=4;overflow=hidden;rotatable=0;points=[[0,0.5],[1,0.5]];portConstraint=eastwest;whiteSpace=wrap;html=1;" parent="Z8-pDT4YCZunrKiM45Pz-76" vertex="1">
          <mxGeometry y="52" width="320" height="26" as="geometry" />
        </mxCell>
        <mxCell id="Z8-pDT4YCZunrKiM45Pz-81" value="- btnIniciarActividad : JButton" style="text;strokeColor=none;fillColor=none;align=left;verticalAlign=top;spacingLeft=4;spacingRight=4;overflow=hidden;rotatable=0;points=[[0,0.5],[1,0.5]];portConstraint=eastwest;whiteSpace=wrap;html=1;" parent="Z8-pDT4YCZunrKiM45Pz-76" vertex="1">
          <mxGeometry y="78" width="320" height="26" as="geometry" />
        </mxCell>
        <mxCell id="Z8-pDT4YCZunrKiM45Pz-78" value="" style="line;strokeWidth=1;fillColor=none;align=left;verticalAlign=middle;spacingTop=-1;spacingLeft=3;spacingRight=3;rotatable=0;labelPosition=right;points=[];portConstraint=eastwest;strokeColor=inherit;" parent="Z8-pDT4YCZunrKiM45Pz-76" vertex="1">
          <mxGeometry y="104" width="320" height="8" as="geometry" />
        </mxCell>
        <mxCell id="Z8-pDT4YCZunrKiM45Pz-82" value="+ MarcarActividadGui(estudiante: Estudiante)" style="text;strokeColor=none;fillColor=none;align=left;verticalAlign=top;spacingLeft=4;spacingRight=4;overflow=hidden;rotatable=0;points=[[0,0.5],[1,0.5]];portConstraint=eastwest;whiteSpace=wrap;html=1;" parent="Z8-pDT4YCZunrKiM45Pz-76" vertex="1">
          <mxGeometry y="112" width="320" height="26" as="geometry" />
        </mxCell>
        <mxCell id="Z8-pDT4YCZunrKiM45Pz-79" value="- cargarActividades(): Void" style="text;strokeColor=none;fillColor=none;align=left;verticalAlign=top;spacingLeft=4;spacingRight=4;overflow=hidden;rotatable=0;points=[[0,0.5],[1,0.5]];portConstraint=eastwest;whiteSpace=wrap;html=1;" parent="Z8-pDT4YCZunrKiM45Pz-76" vertex="1">
          <mxGeometry y="138" width="320" height="26" as="geometry" />
        </mxCell>
        <mxCell id="Z8-pDT4YCZunrKiM45Pz-87" value="- iniciarActividad(estudiante: Estudiante): Void" style="text;strokeColor=none;fillColor=none;align=left;verticalAlign=top;spacingLeft=4;spacingRight=4;overflow=hidden;rotatable=0;points=[[0,0.5],[1,0.5]];portConstraint=eastwest;whiteSpace=wrap;html=1;" parent="Z8-pDT4YCZunrKiM45Pz-76" vertex="1">
          <mxGeometry y="164" width="320" height="26" as="geometry" />
        </mxCell>
        <mxCell id="Z8-pDT4YCZunrKiM45Pz-88" value="ProfesorGui" style="swimlane;fontStyle=1;align=center;verticalAlign=top;childLayout=stackLayout;horizontal=1;startSize=26;horizontalStack=0;resizeParent=1;resizeParentMax=0;resizeLast=0;collapsible=1;marginBottom=0;whiteSpace=wrap;html=1;" parent="WIyWlLk6GJQsqaUBKTNV-1" vertex="1">
          <mxGeometry x="3290" y="2595" width="250" height="138" as="geometry" />
        </mxCell>
        <mxCell id="Z8-pDT4YCZunrKiM45Pz-89" value="- profesor : Profesor" style="text;strokeColor=none;fillColor=none;align=left;verticalAlign=top;spacingLeft=4;spacingRight=4;overflow=hidden;rotatable=0;points=[[0,0.5],[1,0.5]];portConstraint=eastwest;whiteSpace=wrap;html=1;" parent="Z8-pDT4YCZunrKiM45Pz-88" vertex="1">
          <mxGeometry y="26" width="250" height="26" as="geometry" />
        </mxCell>
        <mxCell id="Z8-pDT4YCZunrKiM45Pz-90" value="" style="line;strokeWidth=1;fillColor=none;align=left;verticalAlign=middle;spacingTop=-1;spacingLeft=3;spacingRight=3;rotatable=0;labelPosition=right;points=[];portConstraint=eastwest;strokeColor=inherit;" parent="Z8-pDT4YCZunrKiM45Pz-88" vertex="1">
          <mxGeometry y="52" width="250" height="8" as="geometry" />
        </mxCell>
        <mxCell id="Z8-pDT4YCZunrKiM45Pz-91" value="+ ProfesorGui(profesor: Profesor) : void&amp;nbsp;" style="text;strokeColor=none;fillColor=none;align=left;verticalAlign=top;spacingLeft=4;spacingRight=4;overflow=hidden;rotatable=0;points=[[0,0.5],[1,0.5]];portConstraint=eastwest;whiteSpace=wrap;html=1;" parent="Z8-pDT4YCZunrKiM45Pz-88" vertex="1">
          <mxGeometry y="60" width="250" height="26" as="geometry" />
        </mxCell>
        <mxCell id="Z8-pDT4YCZunrKiM45Pz-92" value="- configurarAcciones() : void" style="text;strokeColor=none;fillColor=none;align=left;verticalAlign=top;spacingLeft=4;spacingRight=4;overflow=hidden;rotatable=0;points=[[0,0.5],[1,0.5]];portConstraint=eastwest;whiteSpace=wrap;html=1;" parent="Z8-pDT4YCZunrKiM45Pz-88" vertex="1">
          <mxGeometry y="86" width="250" height="26" as="geometry" />
        </mxCell>
        <mxCell id="Z8-pDT4YCZunrKiM45Pz-93" value="+ main(args: String[]) : void" style="text;strokeColor=none;fillColor=none;align=left;verticalAlign=top;spacingLeft=4;spacingRight=4;overflow=hidden;rotatable=0;points=[[0,0.5],[1,0.5]];portConstraint=eastwest;whiteSpace=wrap;html=1;" parent="Z8-pDT4YCZunrKiM45Pz-88" vertex="1">
          <mxGeometry y="112" width="250" height="26" as="geometry" />
        </mxCell>
        <mxCell id="Z8-pDT4YCZunrKiM45Pz-94" value="EstudianteGui" style="swimlane;fontStyle=1;align=center;verticalAlign=top;childLayout=stackLayout;horizontal=1;startSize=26;horizontalStack=0;resizeParent=1;resizeParentMax=0;resizeLast=0;collapsible=1;marginBottom=0;whiteSpace=wrap;html=1;" parent="WIyWlLk6GJQsqaUBKTNV-1" vertex="1">
          <mxGeometry x="4140" y="2595" width="280" height="112" as="geometry" />
        </mxCell>
        <mxCell id="Z8-pDT4YCZunrKiM45Pz-95" value="- estudiante : Estudiante" style="text;strokeColor=none;fillColor=none;align=left;verticalAlign=top;spacingLeft=4;spacingRight=4;overflow=hidden;rotatable=0;points=[[0,0.5],[1,0.5]];portConstraint=eastwest;whiteSpace=wrap;html=1;" parent="Z8-pDT4YCZunrKiM45Pz-94" vertex="1">
          <mxGeometry y="26" width="280" height="26" as="geometry" />
        </mxCell>
        <mxCell id="Z8-pDT4YCZunrKiM45Pz-96" value="" style="line;strokeWidth=1;fillColor=none;align=left;verticalAlign=middle;spacingTop=-1;spacingLeft=3;spacingRight=3;rotatable=0;labelPosition=right;points=[];portConstraint=eastwest;strokeColor=inherit;" parent="Z8-pDT4YCZunrKiM45Pz-94" vertex="1">
          <mxGeometry y="52" width="280" height="8" as="geometry" />
        </mxCell>
        <mxCell id="Z8-pDT4YCZunrKiM45Pz-97" value="+ EstudianteGui(estudiante: Estudiante) : void" style="text;strokeColor=none;fillColor=none;align=left;verticalAlign=top;spacingLeft=4;spacingRight=4;overflow=hidden;rotatable=0;points=[[0,0.5],[1,0.5]];portConstraint=eastwest;whiteSpace=wrap;html=1;" parent="Z8-pDT4YCZunrKiM45Pz-94" vertex="1">
          <mxGeometry y="60" width="280" height="26" as="geometry" />
        </mxCell>
        <mxCell id="Z8-pDT4YCZunrKiM45Pz-98" value="+ main(args: String[]) : void" style="text;strokeColor=none;fillColor=none;align=left;verticalAlign=top;spacingLeft=4;spacingRight=4;overflow=hidden;rotatable=0;points=[[0,0.5],[1,0.5]];portConstraint=eastwest;whiteSpace=wrap;html=1;" parent="Z8-pDT4YCZunrKiM45Pz-94" vertex="1">
          <mxGeometry y="86" width="280" height="26" as="geometry" />
        </mxCell>
        <mxCell id="Z8-pDT4YCZunrKiM45Pz-99" value="" style="endArrow=open;endFill=1;endSize=12;html=1;rounded=0;exitX=0.503;exitY=1.022;exitDx=0;exitDy=0;exitPerimeter=0;entryX=0.5;entryY=0;entryDx=0;entryDy=0;" parent="WIyWlLk6GJQsqaUBKTNV-1" source="Z8-pDT4YCZunrKiM45Pz-9" target="Z8-pDT4YCZunrKiM45Pz-88" edge="1">
          <mxGeometry width="160" relative="1" as="geometry">
            <mxPoint x="3600" y="2550" as="sourcePoint" />
            <mxPoint x="3760" y="2550" as="targetPoint" />
          </mxGeometry>
        </mxCell>
        <mxCell id="Z8-pDT4YCZunrKiM45Pz-100" value="" style="endArrow=open;endFill=1;endSize=12;html=1;rounded=0;exitX=0.495;exitY=1.006;exitDx=0;exitDy=0;exitPerimeter=0;entryX=0.5;entryY=0;entryDx=0;entryDy=0;" parent="WIyWlLk6GJQsqaUBKTNV-1" source="Z8-pDT4YCZunrKiM45Pz-9" target="Z8-pDT4YCZunrKiM45Pz-94" edge="1">
          <mxGeometry width="160" relative="1" as="geometry">
            <mxPoint x="3606" y="2473" as="sourcePoint" />
            <mxPoint x="3720" y="2640" as="targetPoint" />
          </mxGeometry>
        </mxCell>
        <mxCell id="Z8-pDT4YCZunrKiM45Pz-101" value="" style="endArrow=block;dashed=1;endFill=0;endSize=12;html=1;rounded=0;exitX=1;exitY=0.5;exitDx=0;exitDy=0;entryX=0;entryY=0.5;entryDx=0;entryDy=0;" parent="WIyWlLk6GJQsqaUBKTNV-1" source="Z8-pDT4YCZunrKiM45Pz-6" target="Z8-pDT4YCZunrKiM45Pz-16" edge="1">
          <mxGeometry width="160" relative="1" as="geometry">
            <mxPoint x="3740" y="2390" as="sourcePoint" />
            <mxPoint x="3890" y="2230" as="targetPoint" />
          </mxGeometry>
        </mxCell>
        <mxCell id="Z8-pDT4YCZunrKiM45Pz-102" value="" style="endArrow=block;dashed=1;endFill=0;endSize=12;html=1;rounded=0;" parent="WIyWlLk6GJQsqaUBKTNV-1" edge="1">
          <mxGeometry width="160" relative="1" as="geometry">
            <mxPoint x="4010" y="2340" as="sourcePoint" />
            <mxPoint x="3720" y="2340" as="targetPoint" />
          </mxGeometry>
        </mxCell>
        <mxCell id="Z8-pDT4YCZunrKiM45Pz-103" value="" style="endArrow=open;endFill=1;endSize=12;html=1;rounded=0;exitX=0.495;exitY=1.02;exitDx=0;exitDy=0;exitPerimeter=0;entryX=0.5;entryY=0;entryDx=0;entryDy=0;" parent="WIyWlLk6GJQsqaUBKTNV-1" source="Z8-pDT4YCZunrKiM45Pz-93" target="Z8-pDT4YCZunrKiM45Pz-23" edge="1">
          <mxGeometry width="160" relative="1" as="geometry">
            <mxPoint x="3430" y="2758" as="sourcePoint" />
            <mxPoint x="3249" y="2815" as="targetPoint" />
            <Array as="points">
              <mxPoint x="3030" y="2755" />
            </Array>
          </mxGeometry>
        </mxCell>
        <mxCell id="Z8-pDT4YCZunrKiM45Pz-106" value="" style="endArrow=open;endFill=1;endSize=12;html=1;rounded=0;exitX=0.495;exitY=1.012;exitDx=0;exitDy=0;exitPerimeter=0;entryX=0.5;entryY=0;entryDx=0;entryDy=0;" parent="WIyWlLk6GJQsqaUBKTNV-1" source="Z8-pDT4YCZunrKiM45Pz-93" target="Z8-pDT4YCZunrKiM45Pz-28" edge="1">
          <mxGeometry width="160" relative="1" as="geometry">
            <mxPoint x="3420" y="2745" as="sourcePoint" />
            <mxPoint x="3550" y="2765" as="targetPoint" />
            <Array as="points">
              <mxPoint x="3350" y="2765" />
            </Array>
          </mxGeometry>
        </mxCell>
        <mxCell id="Z8-pDT4YCZunrKiM45Pz-107" value="" style="endArrow=open;endFill=1;endSize=12;html=1;rounded=0;entryX=0.5;entryY=0;entryDx=0;entryDy=0;exitX=0.496;exitY=1.038;exitDx=0;exitDy=0;exitPerimeter=0;" parent="WIyWlLk6GJQsqaUBKTNV-1" source="Z8-pDT4YCZunrKiM45Pz-93" target="Z8-pDT4YCZunrKiM45Pz-38" edge="1">
          <mxGeometry width="160" relative="1" as="geometry">
            <mxPoint x="3530" y="2755" as="sourcePoint" />
            <mxPoint x="3690" y="2755" as="targetPoint" />
            <Array as="points">
              <mxPoint x="3680" y="2755" />
            </Array>
          </mxGeometry>
        </mxCell>
        <mxCell id="Z8-pDT4YCZunrKiM45Pz-108" value="" style="endArrow=open;endFill=1;endSize=12;html=1;rounded=0;entryX=0.5;entryY=0;entryDx=0;entryDy=0;exitX=0.495;exitY=1.027;exitDx=0;exitDy=0;exitPerimeter=0;" parent="WIyWlLk6GJQsqaUBKTNV-1" source="Z8-pDT4YCZunrKiM45Pz-93" target="Z8-pDT4YCZunrKiM45Pz-44" edge="1">
          <mxGeometry width="160" relative="1" as="geometry">
            <mxPoint x="3200" y="2775" as="sourcePoint" />
            <mxPoint x="3360" y="2775" as="targetPoint" />
            <Array as="points">
              <mxPoint x="3190" y="2775" />
            </Array>
          </mxGeometry>
        </mxCell>
        <mxCell id="Z8-pDT4YCZunrKiM45Pz-109" value="" style="endArrow=open;endFill=1;endSize=12;html=1;rounded=0;entryX=0.5;entryY=0;entryDx=0;entryDy=0;exitX=0.498;exitY=1.005;exitDx=0;exitDy=0;exitPerimeter=0;" parent="WIyWlLk6GJQsqaUBKTNV-1" source="Z8-pDT4YCZunrKiM45Pz-93" target="Z8-pDT4YCZunrKiM45Pz-33" edge="1">
          <mxGeometry width="160" relative="1" as="geometry">
            <mxPoint x="3430" y="2895" as="sourcePoint" />
            <mxPoint x="3590" y="2895" as="targetPoint" />
            <Array as="points">
              <mxPoint x="3500" y="2775" />
              <mxPoint x="3500" y="2895" />
              <mxPoint x="3655" y="2895" />
            </Array>
          </mxGeometry>
        </mxCell>
        <mxCell id="Z8-pDT4YCZunrKiM45Pz-110" value="" style="endArrow=open;endFill=1;endSize=12;html=1;rounded=0;entryX=0.5;entryY=0;entryDx=0;entryDy=0;exitX=0.495;exitY=1.005;exitDx=0;exitDy=0;exitPerimeter=0;" parent="WIyWlLk6GJQsqaUBKTNV-1" source="Z8-pDT4YCZunrKiM45Pz-93" target="Z8-pDT4YCZunrKiM45Pz-55" edge="1">
          <mxGeometry width="160" relative="1" as="geometry">
            <mxPoint x="3260" y="3035" as="sourcePoint" />
            <mxPoint x="3420" y="3035" as="targetPoint" />
            <Array as="points">
              <mxPoint x="3910" y="2775" />
              <mxPoint x="3910" y="3045" />
              <mxPoint x="3720" y="3055" />
            </Array>
          </mxGeometry>
        </mxCell>
        <mxCell id="Z8-pDT4YCZunrKiM45Pz-111" value="" style="endArrow=open;endFill=1;endSize=12;html=1;rounded=0;entryX=0.5;entryY=0;entryDx=0;entryDy=0;exitX=0.502;exitY=1.027;exitDx=0;exitDy=0;exitPerimeter=0;" parent="WIyWlLk6GJQsqaUBKTNV-1" source="Z8-pDT4YCZunrKiM45Pz-93" target="Z8-pDT4YCZunrKiM45Pz-49" edge="1">
          <mxGeometry width="160" relative="1" as="geometry">
            <mxPoint x="2880" y="3035" as="sourcePoint" />
            <mxPoint x="3040" y="3035" as="targetPoint" />
            <Array as="points">
              <mxPoint x="2810" y="2765" />
              <mxPoint x="2810" y="3035" />
              <mxPoint x="3180" y="3035" />
            </Array>
          </mxGeometry>
        </mxCell>
        <mxCell id="Z8-pDT4YCZunrKiM45Pz-112" value="" style="endArrow=open;endFill=1;endSize=12;html=1;rounded=0;entryX=0.5;entryY=0;entryDx=0;entryDy=0;exitX=0.5;exitY=1.019;exitDx=0;exitDy=0;exitPerimeter=0;" parent="WIyWlLk6GJQsqaUBKTNV-1" source="Z8-pDT4YCZunrKiM45Pz-98" target="Z8-pDT4YCZunrKiM45Pz-62" edge="1">
          <mxGeometry width="160" relative="1" as="geometry">
            <mxPoint x="4420" y="2750" as="sourcePoint" />
            <mxPoint x="4580" y="2750" as="targetPoint" />
            <Array as="points">
              <mxPoint x="4166" y="2740" />
            </Array>
          </mxGeometry>
        </mxCell>
        <mxCell id="Z8-pDT4YCZunrKiM45Pz-113" value="" style="endArrow=open;endFill=1;endSize=12;html=1;rounded=0;entryX=0.5;entryY=0;entryDx=0;entryDy=0;exitX=0.503;exitY=1.019;exitDx=0;exitDy=0;exitPerimeter=0;" parent="WIyWlLk6GJQsqaUBKTNV-1" source="Z8-pDT4YCZunrKiM45Pz-98" target="Z8-pDT4YCZunrKiM45Pz-67" edge="1">
          <mxGeometry width="160" relative="1" as="geometry">
            <mxPoint x="4500" y="2720" as="sourcePoint" />
            <mxPoint x="4660" y="2720" as="targetPoint" />
            <Array as="points">
              <mxPoint x="4525" y="2750" />
            </Array>
          </mxGeometry>
        </mxCell>
        <mxCell id="Z8-pDT4YCZunrKiM45Pz-114" value="" style="endArrow=open;endFill=1;endSize=12;html=1;rounded=0;entryX=0.5;entryY=0;entryDx=0;entryDy=0;exitX=0.503;exitY=1.019;exitDx=0;exitDy=0;exitPerimeter=0;" parent="WIyWlLk6GJQsqaUBKTNV-1" source="Z8-pDT4YCZunrKiM45Pz-98" target="Z8-pDT4YCZunrKiM45Pz-72" edge="1">
          <mxGeometry width="160" relative="1" as="geometry">
            <mxPoint x="4690" y="2700" as="sourcePoint" />
            <mxPoint x="4850" y="2700" as="targetPoint" />
            <Array as="points">
              <mxPoint x="4875" y="2740" />
            </Array>
          </mxGeometry>
        </mxCell>
        <mxCell id="Z8-pDT4YCZunrKiM45Pz-115" value="" style="endArrow=open;endFill=1;endSize=12;html=1;rounded=0;entryX=0.5;entryY=0;entryDx=0;entryDy=0;exitX=0.497;exitY=1.019;exitDx=0;exitDy=0;exitPerimeter=0;" parent="WIyWlLk6GJQsqaUBKTNV-1" source="Z8-pDT4YCZunrKiM45Pz-98" target="Z8-pDT4YCZunrKiM45Pz-76" edge="1">
          <mxGeometry width="160" relative="1" as="geometry">
            <mxPoint x="4700" y="2710" as="sourcePoint" />
            <mxPoint x="4885" y="2810" as="targetPoint" />
            <Array as="points">
              <mxPoint x="4340" y="2760" />
              <mxPoint x="4340" y="2900" />
              <mxPoint x="4525" y="2920" />
            </Array>
          </mxGeometry>
        </mxCell>
        <mxCell id="Z8-pDT4YCZunrKiM45Pz-117" value="GUI" style="text;align=center;fontStyle=1;verticalAlign=middle;spacingLeft=3;spacingRight=3;strokeColor=none;rotatable=0;points=[[0,0.5],[1,0.5]];portConstraint=eastwest;html=1;" parent="WIyWlLk6GJQsqaUBKTNV-1" vertex="1">
          <mxGeometry x="2780" y="2060" width="80" height="26" as="geometry" />
        </mxCell>
      </root>
    </mxGraphModel>
  </diagram>
</mxfile>
